<?xml version="1.0" encoding="UTF-8"?>
<svg width="1300pt" height="241pt" version="1.0" viewBox="0 0 1300 241" xmlns="http://www.w3.org/2000/svg" xmlns:cc="http://creativecommons.org/ns#" xmlns:dc="http://purl.org/dc/elements/1.1/" xmlns:rdf="http://www.w3.org/1999/02/22-rdf-syntax-ns#">
 <metadata>
  <rdf:RDF>
   <cc:Work rdf:about="">
    <dc:format>image/svg+xml</dc:format>
    <dc:type rdf:resource="http://purl.org/dc/dcmitype/StillImage"/>
    <dc:title/>
   </cc:Work>
  </rdf:RDF>
 </metadata>
 <g transform="matrix(.1 0 0 -.1 0 241)" fill="#61dbfb">
  <path d="m10044 2388c-46-22-58-101-21-143 32-37 84-43 120-15 39 31 50 65 37 106-19 57-79 80-136 52z"/>
  <path d="m11134 2390c-59-24-72-104-25-151 74-73 191 6 151 102-20 48-76 69-126 49z"/>
  <path d="m12204 2389c-59-30-62-128-5-162 41-24 74-21 110 9 41 34 44 98 7 133-27 25-82 35-112 20z"/>
  <path d="m10524 2360c-32-13-54-50-54-90 1-81 86-117 149-64 77 65-2 194-95 154z"/>
  <path d="m7576 2329c-30-35-33-74-9-109s33-40 80-40c34 0 46 5 68 32 52 61 10 148-71 148-35 0-47-5-68-31z"/>
  <path d="m9499 2321c-71-71 4-183 99-150 36 12 62 53 62 94 0 40-50 85-95 85-27 0-44-8-66-29z"/>
  <path d="m11625 2341c-93-40-67-181 33-181 55 0 92 35 92 89 0 68-67 117-125 92z"/>
  <path d="m4654 2330c-59-24-72-104-25-151 46-46 117-35 147 22 41 79-39 163-122 129z"/>
  <path d="m5595 2315c-18-17-25-35-25-63 0-108 150-130 179-26 10 37-8 87-38 103-36 20-90 13-116-14z"/>
  <path d="m8328 2315c-33-18-52-72-39-107 16-42 61-71 101-64 78 12 106 101 51 157-33 32-70 37-113 14z"/>
  <path d="m6567 2309c-11-6-25-26-33-45-40-96 92-174 159-93 26 32 22 94-8 124-26 27-84 34-118 14z"/>
  <path d="m3769 2251c-37-37-39-88-6-126 66-76 188-5 156 92-21 64-101 83-150 34z"/>
  <path d="m11852 2257c-74-79 6-198 102-152 91 43 59 175-44 175-25 0-43-7-58-23z"/>
  <path d="m12541 2253c-31-26-42-73-26-111 16-37 42-52 90-52 51 0 85 36 85 90 0 56-34 90-88 90-23 0-49-7-61-17z"/>
  <path d="m7036 2224c-35-36-36-95-1-129 37-37 96-37 135 1 36 35 35 98-3 130-39 34-96 33-131-2z"/>
  <path d="m7952 2220c-64-60-26-160 61-160 52 0 85 29 93 82 5 27 1 40-21 66-22 27-34 32-69 32-29 0-49-7-64-20z"/>
  <path d="m8997 2180c-55-43-38-138 28-160 95-31 166 80 96 151-36 35-86 39-124 9z"/>
  <path d="m2918 2115c-39-22-54-75-33-119 43-90 175-59 175 41 0 25-8 43-29 64-33 32-70 37-113 14z"/>
  <path d="m1305 2075c-19-18-25-35-25-65s6-47 25-65c18-19 35-25 65-25s47 6 65 25c19 18 25 35 25 65s-6 47-25 65c-18 19-35 25-65 25s-47-6-65-25z"/>
  <path d="m10772 2080c-65-61-25-160 64-160 35 0 47 5 68 31 15 17 26 43 26 59s-11 42-26 59c-21 26-33 31-68 31-29 0-49-7-64-20z"/>
  <path d="m10106 2059c-43-51-30-120 29-145 45-18 78-10 110 28 34 40 33 82-4 119-42 42-99 41-135-2z"/>
  <path d="m11225 2005c-46-46-28-132 33-153 96-33 169 96 91 161-32 26-94 22-124-8z"/>
  <path d="m2114 2008c-51-24-59-105-15-149 56-56 148-23 153 56 6 79-67 128-138 93z"/>
  <path d="m12209 1991c-52-53-34-128 38-152 31-10 41-9 69 6 60 32 68 115 17 155-38 30-88 26-124-9z"/>
  <path d="m5989 1981c-76-77 13-197 109-147 39 20 56 68 42 112-22 67-100 85-151 35z"/>
  <path d="m9807 1970c-80-63-9-192 88-160 70 23 88 99 36 151-36 35-86 39-124 9z"/>
  <path d="m11551 1964c-43-36-44-93-2-135 37-37 79-38 120-3 26 21 31 33 31 67-1 87-83 127-149 71z"/>
  <path d="m6513 1956c-87-39-63-176 32-176 47 0 71 14 91 51 40 78-42 161-123 125z"/>
  <path d="m7518 1953c-39-25-53-72-34-116 26-65 97-78 147-28 78 78-21 203-113 144z"/>
  <path d="m5065 1951c-70-30-79-133-15-166 72-37 139 1 140 81 0 30-6 46-23 62-26 25-73 35-102 23z"/>
  <path d="m9437 1900c-82-65-2-199 94-160 63 26 78 96 33 149-32 38-87 43-127 11z"/>
  <path d="m12596 1889c-54-64-18-154 62-154 74 0 120 71 88 134-32 61-107 71-150 20z"/>
  <path d="m9065 1875c-49-48-23-145 42-158 35-7 88 15 102 41 6 12 11 37 11 57 0 51-36 85-90 85-30 0-47-6-65-25z"/>
  <path d="m8660 1849c-31-11-60-57-60-94 0-39 50-85 93-85 102 0 131 146 36 179-36 13-35 13-69 0z"/>
  <path d="m11836 1839c-57-51-35-151 37-164 69-13 127 46 112 113-8 40-35 63-82 69-32 4-45 0-67-18z"/>
  <path d="m10583 1830c-66-61-25-164 65-164 79 0 119 109 59 160-36 30-94 32-124 4z"/>
  <path d="m8212 1830c-12-5-29-25-38-44-47-97 71-183 147-107 37 37 39 88 7 126-25 29-79 40-116 25z"/>
  <path d="m4083 1786c-94-42-59-176 45-176 62 0 107 72 78 128-28 54-71 71-123 48z"/>
  <path d="m7184 1740c-59-24-72-104-25-151 35-34 72-37 117-10 96 58 12 203-92 161z"/>
  <path d="m4539 1711c-76-77 13-197 109-147 61 32 62 130 2 161-44 23-78 19-111-14z"/>
  <path d="m5477 1640c-48-38-45-107 7-152 30-26 94-18 123 17 73 84-43 203-130 135z"/>
  <path d="m11171 1634c-26-21-31-33-31-69s5-48 31-69c17-15 43-26 59-26s42 11 59 26c26 21 31 33 31 67-1 87-83 127-149 71z"/>
  <path d="m437 1620c-57-45-40-138 28-160 98-32 168 79 96 151-36 35-86 39-124 9z"/>
  <path d="m3083 1600c-59-24-69-113-18-157 32-28 70-29 112-4 96 59 12 204-94 161z"/>
  <path d="m6165 1575c-34-33-35-102-2-132 31-28 65-34 103-18 39 16 54 41 54 90 0 51-36 85-90 85-30 0-47-6-65-25z"/>
  <path d="m11774 1578c-70-33-51-156 27-173 69-15 134 55 109 119-21 57-81 81-136 54z"/>
  <path d="m12263 1583c-51-10-83-102-50-144 34-44 101-51 141-14 20 19 26 33 26 68 0 65-50 104-117 90z"/>
  <path d="m10275 1568c-32-19-44-41-45-81 0-29 7-45 29-68 37-37 79-38 120-3 26 21 31 33 31 67 0 23-6 49-13 58-28 37-83 49-122 27z"/>
  <path d="m10635 1526c-34-34-40-68-20-110 43-89 175-58 175 42 0 77-101 122-155 68z"/>
  <path d="m7709 1491c-75-75 11-199 104-149 48 25 65 74 42 122-29 61-99 74-146 27z"/>
  <path d="m12649 1461c-59-60-23-156 59-156 73 0 116 63 88 130-26 61-99 73-147 26z"/>
  <path d="m8670 1462c-85-42-55-172 39-172 58 0 96 35 96 89 0 73-70 116-135 83z"/>
  <path d="m9963 1462c-77-61-18-184 80-165 65 13 91 109 42 158-31 30-88 34-122 7z"/>
  <path d="m2207 1459c-27-16-50-68-42-98 28-112 185-93 185 23 0 13-12 38-26 55-20 24-34 31-62 31-21 0-45-5-55-11z"/>
  <path d="m9519 1444c-34-36-32-99 5-131 34-29 94-31 127-4 20 16 24 29 24 71s-4 55-24 71c-35 29-101 26-132-7z"/>
  <path d="m9148 1435c-38-21-53-73-34-119 38-91 176-59 176 41 0 25-8 43-29 64-33 32-70 37-113 14z"/>
  <path d="m6576 1409c-55-65-16-148 70-149 55 0 89 35 89 92 0 83-105 121-159 57z"/>
  <path d="m4906 1359c-15-17-26-43-26-59s11-42 26-59c21-26 33-31 69-31s48 5 69 31c15 17 26 43 26 59s-11 42-26 59c-21 26-33 31-69 31s-48-5-69-31z"/>
  <path d="m11524 1370c-59-24-72-104-25-151 74-73 191 10 146 104-23 49-70 68-121 47z"/>
  <path d="m7049 1335c-55-30-62-116-12-155 39-30 88-26 125 10 27 27 30 36 25 72-3 22-14 49-24 60-26 25-81 32-114 13z"/>
  <path d="m8108 1314c-57-30-65-98-19-145 50-50 124-35 151 30 16 40-1 91-39 114-35 21-57 21-93 1z"/>
  <path d="m3563 1295c-28-20-46-75-34-106 20-54 72-77 124-55 42 17 57 42 57 91 0 69-88 111-147 70z"/>
  <path d="m10878 1270c-27-27-30-36-25-73 9-69 68-102 130-72 91 43 60 175-40 175-25 0-43-8-65-30z"/>
  <path d="m12585 1259c-34-10-65-54-65-94 0-42 50-85 98-85 33 0 45 6 66 31 44 51 26 127-35 148-18 6-32 11-33 10-1 0-15-5-31-10z"/>
  <path d="m11933 1245c-89-38-60-175 38-175 56 0 94 36 94 89 0 70-67 114-132 86z"/>
  <path d="m5966 1209c-47-56-29-127 40-149 96-32 166 97 87 160-40 32-95 27-127-11z"/>
  <path d="m10357 1184c-54-29-62-100-17-146 27-27 36-30 71-25 22 3 49 13 59 22 44 40 32 123-21 150-35 19-56 18-92-1z"/>
  <path d="m11172 1159c-36-14-64-61-58-98 8-52 41-81 93-81 65 0 105 51 89 115-13 50-75 82-124 64z"/>
  <path d="m4105 1115c-19-18-25-35-25-65 0-55 34-90 87-90 42 1 63 13 81 47 35 64-6 133-78 133-30 0-47-6-65-25z"/>
  <path d="m7603 1129c-50-26-55-124-8-155 29-19 78-21 110-4 48 26 57 107 15 145-23 21-88 28-117 14z"/>
  <path d="m8843 1120c-27-11-43-40-43-80 0-42 15-67 51-86 63-32 129 13 129 88 0 70-65 107-137 78z"/>
  <path d="m5479 1091c-21-22-29-39-29-66s8-44 29-66c48-47 117-34 146 28 46 97-70 179-146 104z"/>
  <path d="m1492 1015c-78-66-7-188 91-156 88 29 70 162-24 177-28 5-41 1-67-21z"/>
  <path d="m9260 1020c-62-62-22-160 65-160 55 0 90 35 90 90 0 56-35 90-92 90-29 0-49-6-63-20z"/>
  <path d="m9786 1007c-35-35-36-95-2-134 19-22 32-28 64-28 58 0 92 34 92 91 0 58-24 85-82 91-40 5-50 2-72-20z"/>
  <path d="m12123 1006c-23-20-28-32-28-71 0-40 4-50 30-71 71-57 167 2 150 93-12 68-98 95-152 49z"/>
  <path d="m11437 989c-27-16-49-67-42-98 7-33 40-66 74-74 31-8 86 15 100 41 15 27 13 83-2 103-28 36-92 50-130 28z"/>
  <path d="m8477 972c-30-33-38-70-23-107 17-40 42-55 91-55 76 0 116 100 60 155-30 31-103 35-128 7z"/>
  <path d="m12473 975c-61-26-72-97-24-146 73-72 184 1 150 99-9 28-55 62-81 62-7-1-27-7-45-15z"/>
  <path d="m4485 936c-13-13-27-35-30-49-14-55 55-125 110-111 38 9 75 59 75 100 0 75-101 114-155 60z"/>
  <path d="m8185 948c-74-19-90-129-24-163 70-37 144 1 144 73 0 69-53 108-120 90z"/>
  <path d="m6236 899c-15-17-26-43-26-59s11-42 26-59c21-26 33-31 69-31s48 5 69 31c15 17 26 43 26 59s-11 42-26 59c-21 26-33 31-69 31s-48-5-69-31z"/>
  <path d="m2405 895c-56-56-18-155 60-155 47 0 71 14 90 51s6 90-28 114-94 19-122-10z"/>
  <path d="m2957 899c-41-11-56-26-63-65-7-40 10-90 37-104 33-18 86-11 116 14 22 19 28 32 28 64 0 68-53 108-118 91z"/>
  <path d="m5075 889c-60-36-65-127-10-163 89-58 192 59 123 139-26 29-83 41-113 24z"/>
  <path d="m6769 871c-21-22-29-39-29-66 0-45 45-95 85-95 41 0 82 26 94 62 33 95-79 170-150 99z"/>
  <path d="m11734 878c-47-22-58-101-20-145 44-51 132-31 157 36 12 31-6 86-34 106-24 17-72 19-103 3z"/>
  <path d="m10645 852c-41-6-76-45-77-84-2-70 44-107 116-94 84 16 90 146 9 173-16 5-37 7-48 5z"/>
  <path d="m11065 805c-17-17-25-35-25-60 0-49 15-74 56-91 29-12 39-12 67-1 45 19 59 40 61 88 1 33-5 46-27 65-39 33-99 33-132-1z"/>
  <path d="m7360 787c-37-18-60-71-49-110 19-68 101-91 153-42 23 21 27 32 24 72-2 36-9 50-28 64-35 25-71 31-100 16z"/>
  <path d="m10017 766c-53-49-42-116 25-149 33-16 40-16 71-3 88 36 61 176-33 176-25 0-45-8-63-24z"/>
  <path d="m9484 744c-64-31-72-118-15-161 27-21 87-16 118 11 22 19 28 32 28 65 0 71-69 115-131 85z"/>
  <path d="m5725 738c-33-17-45-39-45-79 0-56 36-94 88-94 57 0 92 34 92 89 0 23-6 48-13 57-28 37-83 49-122 27z"/>
  <path d="m8882 725c-56-24-68-94-26-144 43-51 118-41 150 20 40 78-41 159-124 124z"/>
  <path d="m12269 651c-21-22-29-39-29-66 0-45 45-95 85-95 75 0 124 75 91 139-30 57-101 68-147 22z"/>
  <path d="m10359 609c-42-16-63-84-39-130 16-29 67-51 101-44 38 8 69 49 69 91 0 46-8 63-41 79-32 17-52 18-90 4z"/>
  <path d="m1023 594c-58-29-67-114-16-154 38-30 88-26 124 9 48 48 31 128-32 150-40 14-37 14-76-5z"/>
  <path d="m7913 600c-23-9-53-57-53-85 0-30 29-72 59-85 96-40 175 77 102 151-30 30-65 36-108 19z"/>
  <path d="m7009 567c-45-34-50-92-13-136 21-26 33-31 68-31 51 0 84 29 92 82 5 27 1 40-21 66-22 27-34 32-68 32-23 0-49-6-58-13z"/>
  <path d="m11035 569c-81-48-53-179 39-179 59 0 96 39 96 100 0 60-83 109-135 79z"/>
  <path d="m11964 570c-58-24-73-113-28-155 60-56 154-16 154 64 0 69-66 117-126 91z"/>
  <path d="m3564 559c-11-6-29-24-38-40-56-94 68-187 145-110 47 48 38 116-21 146-33 17-56 18-86 4z"/>
  <path d="m8445 535c-33-32-34-93-2-130 17-20 31-26 65-27 47 0 69 14 87 56 16 36 4 84-26 109-32 26-94 22-124-8z"/>
  <path d="m4420 537c-79-40-53-162 38-174 36-5 45-2 72 25 42 43 42 93-1 133-34 31-68 37-109 16z"/>
  <path d="m9269 461c-45-46-37-108 18-142 31-19 39-20 74-10 42 13 69 50 69 96 0 40-50 85-95 85-27 0-44-8-66-29z"/>
  <path d="m9775 473c-55-13-83-74-60-130 37-89 175-63 175 32 0 49-15 74-55 91-19 8-36 13-37 13-2-1-12-3-23-6z"/>
  <path d="m4972 455c-58-25-69-99-23-146 36-35 86-39 124-9 55 43 40 136-24 159-39 13-36 13-77-4z"/>
  <path d="m11556 434c-57-57-20-154 59-154 49 0 74 15 91 56 12 29 12 39 0 68-26 62-102 77-150 30z"/>
  <path d="m8198 439c-39-15-62-70-48-114 23-70 99-88 151-36 73 74-4 187-103 150z"/>
  <path d="m1940 427c-83-42-51-177 43-177 96 0 132 131 48 175-36 18-58 19-91 2z"/>
  <path d="m6549 427c-45-34-50-92-13-136 21-26 33-31 69-31s48 5 69 31c55 65 16 148-69 148-22 0-47-5-56-12z"/>
  <path d="m10683 428c-29-14-55-71-47-102 17-70 114-96 160-43 36 42 33 98-7 131-32 27-69 32-106 14z"/>
  <path d="m6094 400c-12-4-31-21-44-37-70-89 71-199 144-112 45 53 31 119-29 145-39 16-42 16-71 4z"/>
  <path d="m3974 390c-59-24-72-104-25-151 52-51 128-34 151 35 24 74-54 147-126 116z"/>
  <path d="m12517 374c-54-29-62-100-18-145 22-21 39-29 66-29 97 0 128 139 39 176-41 17-52 17-87-2z"/>
  <path d="m7526 329c-46-54-27-127 38-149 63-20 121 24 121 92 0 83-105 121-159 57z"/>
  <path d="m266 319c-30-35-33-74-9-109s33-40 80-40c34 0 46 5 67 31 15 17 26 43 26 59s-11 42-26 59c-21 26-33 31-69 31s-48-5-69-31z"/>
  <path d="m4673 286c-94-42-59-176 45-176 62 0 107 72 78 128-28 54-71 71-123 48z"/>
  <path d="m10235 276c-34-34-40-68-20-110 29-61 113-72 155-19 69 88-57 207-135 129z"/>
  <path d="m11271 274c-26-21-31-33-31-69s5-48 31-69c66-56 148-16 149 71 0 34-5 46-31 67-17 15-43 26-59 26s-42-11-59-26z"/>
  <path d="m8855 258c-22-26-26-39-21-66 8-52 41-82 91-82 65 0 107 52 91 115-10 41-45 65-92 65-35 0-47-5-69-32z"/>
  <path d="m5398 263c-55-34-63-99-19-144 41-40 91-40 132 0 47 48 35 121-26 146-43 19-54 18-87-2z"/>
  <path d="m9503 256c-94-42-59-176 45-176 62 0 107 72 78 128-28 54-71 71-123 48z"/>
  <path d="m7183 236c-94-42-59-176 45-176 62 0 107 72 78 128-28 54-71 71-123 48z"/>
  <path d="m2547 210c-76-60-17-183 80-165 39 7 73 53 73 98 0 69-96 111-153 67z"/>
  <path d="m3234 190c-56-23-72-107-29-154 26-28 79-35 117-15 28 15 49 70 39 104-13 49-82 84-127 65z"/>
  <path d="m11939 187c-45-34-48-100-7-144 16-17 33-23 64-23 35 0 47 5 68 31 37 44 32 102-13 136-21 16-91 16-112 0z"/>
  <path d="m8530 174c-30-22-38-32-46-62-14-53 39-112 101-112 40 0 85 50 85 94 0 71-84 119-140 80z"/>
 </g>
</svg>
