<svg xmlns="http://www.w3.org/2000/svg" width="793.02" height="99.836" viewBox="0 0 209.82 26.415"  xmlns:v="https://vecta.io/nano"><style><![CDATA[.B{stroke-width:.665}]]></style><defs><clipPath id="A"><path d="M.094 109.38h209.83v26.426H.094z" class="B"/></clipPath><clipPath id="B"><path d="M.094 109.38h209.83v26.426H.094z" class="B"/></clipPath><clipPath id="C"><path d="M.094 109.38h209.83v26.426H.094z" class="B"/></clipPath><clipPath id="D"><path d="M.094 109.38h209.83v26.426H.094z" class="B"/></clipPath><clipPath id="E"><path d="M.094 109.38h209.83v26.426H.094z" class="B"/></clipPath><clipPath id="F"><path d="M.094 109.38h209.83v26.426H.094z" class="B"/></clipPath><clipPath id="G"><path d="M.094 109.38h209.83v26.426H.094z" class="B"/></clipPath><clipPath id="H"><path d="M.094 109.38h209.83v26.426H.094z" class="B"/></clipPath><clipPath id="I"><path d="M.094 109.38h209.83v26.426H.094z" class="B"/></clipPath><clipPath id="J"><path d="M.094 109.38h209.83v26.426H.094z" class="B"/></clipPath><clipPath id="K"><path d="M.094 109.38h209.83v26.426H.094z" class="B"/></clipPath><clipPath id="L"><path d="M.094 109.38h209.83v26.426H.094z" class="B"/></clipPath><clipPath id="M"><path d="M.094 109.38h209.83v26.426H.094z" class="B"/></clipPath><clipPath id="N"><path d="M.094 109.38h209.83v26.426H.094z" class="B"/></clipPath><clipPath id="O"><path d="M.094 109.38h209.83v26.426H.094z" class="B"/></clipPath><clipPath id="P"><path d="M.094 109.38h209.83v26.426H.094z" class="B"/></clipPath><clipPath id="Q"><path d="M.094 109.38h209.83v26.426H.094z" class="B"/></clipPath><clipPath id="R"><path d="M.094 109.38h209.83v26.426H.094z" class="B"/></clipPath><clipPath id="S"><path d="M.094 109.38h209.83v26.426H.094z" class="B"/></clipPath><clipPath id="T"><path d="M.094 109.38h209.83v26.426H.094z" class="B"/></clipPath><clipPath id="U"><path d="M.094 109.38h209.83v26.426H.094z" class="B"/></clipPath><clipPath id="V"><path d="M.094 109.38h209.83v26.426H.094z" class="B"/></clipPath><clipPath id="W"><path d="M.094 109.38h209.83v26.426H.094z" class="B"/></clipPath><clipPath id="X"><path d="M.094 109.38h209.83v26.426H.094z" class="B"/></clipPath><clipPath id="Y"><path d="M.094 109.38h209.83v26.426H.094z" class="B"/></clipPath><clipPath id="Z"><path d="M.094 109.38h209.83v26.426H.094z" class="B"/></clipPath><clipPath id="a"><path d="M.094 109.38h209.83v26.426H.094z" class="B"/></clipPath><clipPath id="b"><path d="M.094 109.38h209.83v26.426H.094z" class="B"/></clipPath><clipPath id="c"><path d="M.094 109.38h209.83v26.426H.094z" class="B"/></clipPath><clipPath id="d"><path d="M.094 109.38h209.83v26.426H.094z" class="B"/></clipPath><clipPath id="e"><path stroke-width="2.513" d="M.356 413.39h793.05v99.878H.356z"/></clipPath></defs><g fill="#61dbfb" transform="translate(-.094 -109.38)"><path transform="scale(.26458)" d="M155.11 513.1l-15.75-.713c-46.185-2.057-103.86-9.43-134.25-17.163l-4.5-1.145-.256-80.686h793.01v80.33l-15.375-3.412c-58.673-13.019-102.59-18.895-164.62-22.025-16.647-.84-72.018-.828-86.5.018-54.853 3.206-91.449 7.169-135 14.618-15.307 2.618-24.597 4.456-54.25 10.731-30.756 6.509-44.86 9.211-59.75 11.447-22.357 3.357-42.243 5.511-65.25 7.066-10.564.714-49.039 1.339-57.5.934z" clip-path="url(#e)"/><path d="M.177 130.72l-.052-.013-.085-.022-.047-.012-.019.001.053.013.085.022.049.013.015-.002z" clip-path="url(#d)"/><path d="M.136 130.42c.016-.017.017-.041.015-.064-.019.007-.018.011-.018.015l-.004.045c-.001.017-.001.023.015.011l-.001-.03c-.021.006-.021.011-.022.015l-.004.028c0 .003-.005.031.009.027s.012-.02.013-.028c-.014-.01.012-.036.006-.036-.009.021-.009.025-.008.029.004.024.006.031.017.026.005-.002.004-.018.004-.021-.007-.011-.007-.015-.008-.019s-.002-.021-.01-.024c-.014.017-.014.022-.015.026-.003.02-.005.025-.004.029.012-.02.012-.021.014-.034s-.006-.019-.01-.02l.002.025c.018.022.015.016.015.009l.004-.054c-.016-.028-.012-.006-.013-.015.001.023 0 .046-.002.068.021-.008.006-.014.002-.004z" clip-path="url(#c)"/><path d="M.112 130.43c.004.017.003.019.005.02s.011.01.017.014c.008-.006.019-.011.025-.019.003-.003.002-.031.002-.033l-.002-.054c-.001-.023.003-.032-.042-.009l.004.053.003.057c.016.017.029.014.043.013l-.001-.045-.008-.06c-.006-.033-.008-.052-.039-.044-.01.002-.01.022-.01.03v.056l.009.072.006.024.016.057c.003.015.005.03.008.045l.008.035c.003.015.003.02.003.024-.02.004-.023.003-.027.002l-.016-.004c.003.009.01.017.008.026l-.018.012.028.004.018.008c-.006-.009-.01-.014-.009-.02.001-.01.007-.014.015-.017l-.026-.008c-.013-.004-.017-.004-.021-.004.017-.001.016.037 0 .041l.031.005c.033.002.037-.038.007-.041l-.038-.006c-.016.034-.023.04-.001.042l.026.007c.021.003.026.004.029.003.009-.002.016-.007.017-.018-.006-.018-.008-.019-.009-.021-.011-.006-.015-.009-.019-.01l-.029-.006c-.007-.001-.014-.003-.022-.003s-.016.005-.018.012c-.006.021.004.026.017.031l.02.005.026.007c.022.001.028-.002.032-.006a.07.07 0 0 0 .016-.02c.004-.017.005-.021.005-.025-.001-.025-.003-.03-.005-.036s-.005-.02-.006-.03l-.008-.048-.016-.056-.005-.022c-.003-.018-.006-.036-.007-.053l-.001-.066c-.019.002-.028-.006-.038-.009.003.01.004.021.006.028l.005.038.003.035c.014.018.027.02.041.02l-.007-.107c-.054-.029-.043-.026-.042-.01l.002.064c0 .016-.002.021 0 .021.008-.001.015-.006.022-.009l.014.014c-.01-.046-.05-.037-.044-.008z" clip-path="url(#b)"/><path d="M.117 130.67l-.024-.005c-.001.049-.013.04.004.041.013.003.02.004.026.007s.015.005.023.007l.03.009c.041.004.044-.037.015-.039-.016-.004-.019-.006-.023-.007l-.032-.008c-.009-.003-.018-.006-.028-.007-.02.013-.021.026-.022.04.043.013.058-.025.03-.036z" clip-path="url(#a)"/><path d="M.175 130.67l-.009-.025c-.005-.02-.008-.042-.012-.062 0-.002-.003-.025-.007-.024-.013.002-.026.008-.037.016l.002.021.009.054c.004.013.009.023.018.023s.018-.004.025-.009.006-.021.006-.027c0-.016-.004-.031-.008-.047-.001-.005-.005-.018-.008-.023-.017-.011-.027-.016-.036-.012s-.008.011-.011.017c-.005.025-.006.038-.006.051s0 .019.004.028c.015.019.02.02.024.021.019-.004.023-.007.026-.011.009-.012.009-.028.006-.041s-.008-.019-.011-.022c-.01-.01-.019-.013-.033-.007-.008.003-.014.014-.018.022-.004.015-.005.019-.005.024 0 .011.003.024.01.032.013.011.018.011.022.013.023-.009.025-.015.027-.02.001-.025-.002-.035-.006-.043-.009-.013-.011-.017-.014-.019-.013-.008-.021-.009-.035 0-.013.021-.013.027-.013.035s.001.012.005.02.016.019.029.018c.017-.007.021-.01.024-.013.011-.015.008-.035-.001-.05-.02-.017-.023-.023-.042-.01-.007.005-.009.02-.008.028s.004.013.009.023c.025.014.036.011.046.002.016-.029.015-.041.016-.055s0-.02-.003-.036-.007-.039-.036-.032c-.008.002-.009.013-.013.02-.003.014-.004.029-.006.043.012-.004.025-.005.037-.007l-.007-.026c-.02-.013-.032-.006-.045-.002 0 .011.001.022.002.032.019.016.031.008.044.003 0-.013-.002-.027-.003-.04-.016-.019-.03-.016-.044-.015v.043.032c.013.005.027.008.041.007l.002-.028-.002-.104c-.014-.004-.028-.004-.041 0l.005.051c.004.04.045.036.042.007l-.005-.053c-.014-.011-.028-.009-.042-.008l.003.091-.001.026c.013.012.026.014.04.015v-.051c-.014-.02-.027-.022-.04-.022l.005.046c.099-.014.023-.016.039.001l-.003-.03-.038.006.01.037c.013 0 .027.003.04.001l.006-.043c-.017.011-.005.007-.034-.005.005.024.005.027.006.04l-.002.022c-.009.019-.008.018-.016.01.017.005.017.004.022.007-.017-.001-.018-.003-.02-.005.011.017.011.016.012.016.018-.004.021-.003.023-.001-.017-.017-.018-.016-.022-.023.015.007.011.008.02.009l.008-.04c-.008-.01-.016.038-.028-.008l.011.039c.01.011.017.007.025.008.006-.009.003-.026.001-.043-.014-.015-.026-.008-.038-.008.002.028.005.05.011.073l.011.031c.012.027.05.01.038-.017z" clip-path="url(#Z)"/><path d="M.096 130.5v.021c.008.019.015.024.021.03.01-.001.02.001.029-.002.019-.019.024-.031.026-.04s.005-.025.008-.04l.006-.059c0-.017.003-.023-.001-.024-.019-.005-.04-.005-.06-.007l-.005.02c-.001.007-.003.034-.004.04l-.002.043v.045c.001.012-.001.02.004.02.066-.005.061 0 .058-.034l-.003-.022-.009-.051-.008-.044c-.008-.03-.013-.053-.038-.048-.015.003-.024.02-.033.033l-.005.057-.004.075v.032.037c.021.019.041.018.061.02a.4.4 0 0 0 .007-.046l.005-.08.001-.162c-.001-.033.005-.031-.062-.011l.004.052.017.149.005.042c.014.023.027.031.039.039.008-.011.018-.02.025-.032v-.03-.047l-.001-.029c-.001-.031-.003-.062-.007-.094-.002-.012-.005-.035-.009-.048-.017-.022-.025-.037-.037-.035-.031.004-.037.029-.042.051l-.006.027-.009.064-.01.143v.034c.01.029.01.034.046.033.007 0 .011-.009.016-.015.006-.017.008-.028.009-.034.006-.037.008-.074.009-.111-.02-.009-.042-.011-.062-.008l-.002.067-.004.087c-.001.01-.002.02-.005.029.024-.007.042.002.06.008l-.001-.071-.002-.043-.002-.047c-.021-.013-.041-.008-.062-.005l.003.081c.002.011.003.032.019.033s.033-.01.046-.02c.006-.005.004-.015.006-.022.003-.017.005-.044.007-.061l.014-.223c-.017-.007-.037-.012-.055-.007l.008.06.003.024.005.03c.068.005.063.01.064-.024v-.148c-.001-.035.005-.042-.063-.024l-.002.065v.026.039c.065.005.062.018.06-.014l-.01-.156c-.006-.043-.017-.044-.065-.024-.007.003-.003.016-.004.024l-.004.06-.006.09-.004.044c.011-.033-.006.004.06-.005l-.001-.091v-.078l.001-.038c-.02.002-.041.002-.061.007l.002.03.004.088.001.027.001.036c.069.008.062.018.064-.019l.008-.141c.003-.044-.058-.049-.062-.005l-.008.143c-.002.035-.006.015.06.02l-.002-.036-.001-.027-.005-.111c-.021-.02-.043-.015-.063-.014l-.001.039v.078l.001.078c.057.056.052.055.063.026l.01-.137c.006-.089-.001.019.004-.056-.018-.016-.037-.015-.056-.017l.012.17c.003.036-.004.026.064.018l.001-.048v-.026l.001-.045c-.076-.026-.061-.034-.06-.01l.001.16c0 .033-.004.004.057.006l-.004-.042-.006-.049c-.001-.007.003-.018-.004-.021-.045-.023-.058-.028-.065.002l-.015.239-.006.054c.013.009.026-.002.039.001s.017.031.013.019l-.004-.083-.062-.003.002.061.002.044.002.052-.001.021c.017.009.035.017.055.019.011-.03.013-.042.014-.054l.004-.091.001-.054c-.02-.012-.041-.014-.061-.014l-.008.107c.048.004.046.005.053.021-.001-.011 0-.019 0-.028l.01-.138.008-.059.005-.023c-.061-.029.018.029-.043-.024.005.01.003.005.007.022l.004.024a.79.79 0 0 1 .006.088l.001.028v.047c0 .019-.002.025 0 .024.009-.006.016-.015.024-.023l.036.025-.006-.052-.017-.147-.003-.039c-.069-.025-.063-.029-.063.004l-.001.159-.005.077-.003.028a.37.37 0 0 1 .059.007l-.001-.039v-.03l.003-.072.003-.037c-.01-.009-.017.006-.029.005-.02-.002-.031-.036-.024-.016l.011.058.008.049c.006.049-.001.019.063.023a.14.14 0 0 0 .002-.021l.003-.058.003-.035-.058-.014c-.001.029-.003.047-.005.066l-.005.03c.018.001-.018.004.028.005.005.006.01.01.015.017.004-.051-.058-.056-.061-.012z" clip-path="url(#Y)"/><path d="M.175 130.21c0-.04-.003-.079-.006-.118l-.009-.116c-.021-.015-.042-.012-.063-.013l-.001.024v.025l.003.154c.001.054 0-.005.001.034.065.002.063.016.06-.014l-.008-.124c-.003-.04.003-.053-.064-.016v.037.1c.021-.001.042.002.062-.003l-.004-.063-.005-.062-.004-.08c-.02-.006-.04-.005-.06-.003l.007.153.001.037c.02.016.041.023.061.018.005-.001.007-.046.007-.048l.001-.032c.003-.074-.001 0 .003-.076l.005-.095.002-.02c-.019.002-.039.002-.057.009l.007.072.006.079c.065.041.054.038.066-.006v-.026l-.001-.067-.002-.1-.001-.041c-.021-.011-.043-.013-.063-.008v.04l-.003.161c.02.004.041.005.061-.002l-.013-.098-.009-.054-.004-.02c-.011-.024-.017-.038-.026-.036-.018.003-.03.021-.045.031l-.004.028-.005.063-.006.076c.018-.009-.009.02-.002.02.02-.001.04-.004.06-.008.001-.01.001-.016.001-.023v-.026l-.002-.097c-.021.004-.04-.001-.057.004l.011.066.004.024c.015.045.015.055.069.024.008-.005.004-.018.005-.028l.002-.032.004-.073.003-.061.002-.02c-.048.018-.016.027-.055.005l.012.147c.022.012.044.01.062-.001l-.006-.073-.008-.074c-.003-.017-.001-.024-.005-.024-.021 0-.041.007-.061.011-.002.031.001.063.003.094.003.044.065.04.062-.004l-.003-.08-.059-.001c.002.009.003.023.004.032l.006.053.005.053c.069.041.065.037.063.011l-.013-.156c-.009-.012-.012-.033-.026-.036-.034-.006-.039.019-.041.038l-.002.021-.003.062-.003.072-.002.028c.017.015.036.013.053.015l-.008-.038-.009-.051c-.001-.007.002-.017-.004-.021-.017-.011-.039-.012-.058-.019-.007.022-.007.027-.007.032v.02l.002.124c0 .007-.005.019.002.021.057.016.059.014.062-.012l.014-.168c-.061.013-.021.016-.052-.009.005.014.006.02.007.026l.008.052.011.081c.066.036.063.039.065.012l.003-.164v-.023c-.02-.016-.041-.016-.062-.015l.001.048.002.1.001.065v.023c.023-.017-.005.001.059.012l-.008-.088-.006-.062c-.001-.008.004-.022-.004-.025-.066-.028-.062-.009-.066.027l-.006.096-.003.076-.001.03-.001.02a.37.37 0 0 0 .058.015l-.002-.04-.008-.16c-.021-.003-.041-.01-.062-.01-.001.015-.001.02-.001.024l.004.082.005.063.003.047c.02.017.042.014.062.015v-.101-.021c-.02-.018-.04-.01-.06-.012l.008.141c.003.033-.003.02.063.013-.001-.045 0 .016-.001-.039l-.003-.178c-.021-.009-.041-.015-.061-.014l.003.028.007.096.006.113c0 .044.062.044.062 0z" clip-path="url(#X)"/><path d="M.127 129.81c0 .021 0 .011.062.007.004-.034.004-.058.004-.082l-.004-.108-.004-.052c-.006-.021-.007-.036-.015-.035-.02.003-.037.017-.051.031-.005.005-.001.015-.001.023v.101l.001.061.001.02c.001.02.003.046.044.037.015-.003.014-.026.02-.04v-.023l-.003-.06-.005-.057c-.014-.047-.011-.053-.068-.014-.007.005-.002.017-.002.025l-.002.031-.003.074-.001.092.001.029c.023.006.045.006.063-.003v-.068l-.001-.048c-.002-.036.002-.049-.064-.029-.007.002-.003.014-.003.021l-.004.048-.002.024-.002.021c-.002.031-.003.06.025.057.017-.001.024-.025.037-.037l.001-.021-.002-.057-.005-.076c-.004-.035-.001-.044-.065-.01l.003.067.004.067.002.025c.022.007.043.011.063.004a.48.48 0 0 0-.001-.074l-.008-.074-.01-.085c-.053.024-.009.032-.059.011l.024.182c.006.009-.001.023.005.033.022.035.031.033.064-.012.005-.007.001-.017 0-.025l-.001-.034-.018-.245-.004-.045c-.021-.005-.043-.003-.061.007l.006.044.011.097.006.061c.022.004.044.002.062-.009l-.019-.108-.007-.032-.011-.048c-.072-.02-.064-.022-.065.018l.007.084.004.047c.002.019 0 .025.004.026.02.004.041.008.06.001.008-.003.003-.016.004-.024s.001-.018.001-.026l.001-.066v-.1l.001-.027c.001-.018-.001-.013.002-.02-.017.005-.035.008-.052.015 0 .014.002.021.004.029l.013.085c.006.035.004.056.067.03.008-.003.002-.017.002-.025s-.003-.045-.003-.05l-.007-.079-.004-.037c-.02.005-.043.005-.061.016l.004.046.005.086c.021-.008-.011.031 0 .032.018-.016.037-.012.052-.017l-.009-.029-.015-.055c-.005-.018-.005-.025-.009-.026-.018-.004-.037 0-.056 0l-.007.027c-.001.007-.002.045-.002.051l-.001.063c-.001.025-.001-.014.029-.022.01-.003.017.014.028.015l-.009-.046-.005-.025c-.024-.007-.045-.001-.063.01l.001.037.002.063.001.025c.025.008.046.005.063-.007l-.001-.092c-.001-.023 0-.025-.062.01-.006.004.001.014.001.022l.004.095.001.081c0 .017-.002.022 0 .022.021.002.041 0 .062-.001a1.81 1.81 0 0 0-.004-.172l-.003-.043c-.022-.013-.043-.015-.063-.009v.042l.001.215c0 .012-.003.051.018.05.048 0 .045-.019.049-.046.006-.052.007-.104.008-.156.002-.023.003-.023-.061.004l.003.102v.072c0 .016-.002.02 0 .022.019.006.039.008.059.012l.004-.021c.001-.007.001-.014.001-.02l.002-.029.006-.081.004-.046.009-.084.004-.028c-.042.013.002.019-.048.003l.013.063c0 .002.006.029.009.033s.016.014.025.021c.013-.011.03-.018.04-.032.005-.006.002-.015.002-.023v-.024l-.003-.065-.002-.026c-.022-.006-.044-.004-.063.005l.001.035.001.053c.059-.015.033-.024.055-.015l-.015-.07c-.009-.043-.069-.031-.061.012l.017.075c.017.038.006.036.066.007v-.044-.021c-.001-.024.003-.032-.001-.033-.02-.004-.041.002-.061.001l.002.023.003.061c0 .024-.004.032 0 .032.013 0 .024-.009.036-.013.006.006.011.014.018.019l-.007-.026c-.018-.083.01.043-.01-.046l-.005-.023c-.012-.011-.019-.031-.036-.034-.027-.004-.033.025-.036.042l-.004.03-.009.086-.004.047-.006.082-.002.029c.02.023.039.029.059.032v-.093l-.002-.087c0-.007.005-.018-.001-.021-.019-.008-.042-.007-.062-.006l-.008.155c-.005.034-.003-.009.041 0 .019.004.015.04.015.019v-.036l-.001-.194v-.023c-.02-.012-.041-.013-.061-.012l.004.049.004.16.061.007-.002-.102-.004-.097c0-.007.005-.018-.001-.021-.064-.029-.064-.027-.062-.005l.002.072c.019.017.038.01.057.008a.55.55 0 0 0 .002-.073v-.02c-.02-.016-.039-.007-.059-.007l.009.052c.012.028.021.047.035.047.033.001.032-.022.033-.039l.001-.062.001-.025c0-.007.002-.014.001-.02l-.054-.008.02.071.013.04c.018.008.038.012.058.009.008-.023.007-.053.007-.055l-.001-.027-.006-.088c-.021-.025-.043-.019-.064-.02.001.004.003.03.003.032l.006.079.002.026c.001.021.002.022.003.022.133.017.06.022.055.002l-.017-.105-.005-.027c-.002-.009 0-.024-.009-.027-.019-.006-.039.004-.058.006-.004.025-.005.052-.005.061v.1.064l-.001.023c0 .023.048.012.058.013l-.006-.062-.005-.058-.002-.023c-.009-.022-.003-.011-.06-.008.005.018.01.042.013.052l.006.031.012.062.004.024c.062.024.067-.009.063.012l-.006-.06-.011-.099-.004-.027c-.023-.023-.045-.019-.065-.016l.005.051.018.242.001.031c.015.019.027.002.041.004s.019.038.015.013l-.027-.206c-.011-.013-.016-.037-.032-.039-.039-.003-.033.03-.031.047l.003.022.008.063.009.1c0 .022-.002.025 0 .026.019.003.04.002.059.004l-.004-.064-.001-.025-.001-.025-.001-.023c-.02-.02-.041-.015-.062-.015l.009.14c.053-.011.019-.008.06.03l.005-.067.002-.025.002-.021c-.119-.044-.059-.035-.057-.014l.002.109c.019.017.039.013.058.012l.001-.108.004-.102c-.06-.038-.051.002-.056-.024.003.022.002.013.005.041l.006.106c.036-.03.005-.014.061.01l-.003-.088v-.098c-.068-.029-.035.017-.058-.026l.006.06.004.104-.001.05c-.002.036-.011.017.059.027 0-.045-.062-.045-.062-.001z" clip-path="url(#W)"/><path d="M.164 129.48l-.014-.107-.008-.054-.003-.02c-.005-.019-.004-.029-.01-.028-.02.001-.038.013-.057.019l-.001.069.003.067c.002.034-.002.037.064.012l-.002-.063-.002-.073c-.049.023-.008.031-.06.004l.006.126c.003.021 0 .028.005.029.019.004.041.008.059.001.008-.003.004-.017.005-.026s.002-.018.002-.028l.002-.07.001-.065.002-.037c-.018.007-.037.008-.055.009l.005.037.008.065.007.057c.002.014.006.061.032.056.017-.003.029-.02.039-.034.002-.003.003-.053.003-.053l-.002-.065-.002-.028-.003-.021c-.023-.022-.042-.019-.06-.021-.004.01-.009.019-.011.029a.54.54 0 0 0-.006.056l-.004.078c-.001.041-.001.038.061.018l-.009-.069-.017-.097c0-.001-.009-.048-.01-.052-.016-.043-.013-.048-.068-.012-.006.004-.001.015-.001.022v.025l.001.059.001.085.001.036c.015.019.028.037.044.035s.023-.039.026-.053l.004-.027.008-.066.01-.148c-.021-.007-.043-.009-.063-.002l.004.091.012.13c.005.054.067.048.063.004l-.012-.139-.004-.052c-.001-.021.002-.027-.001-.027-.02-.005-.041-.003-.061-.005 0 .048-.004.095-.009.142l-.012.09c.028.014.041.022.054.031l-.002-.04-.002-.166c-.06-.021-.051.011-.057-.013l.013.065.017.095.007.049c.067.029.063.035.063.009l.004-.089.002-.027c.001-.007.003-.013.003-.02l-.051-.014.005.043.002.061-.001.026c.012.016.022 0 .034.002.024.004.023.037.019.014l-.014-.108-.008-.06-.005-.023c-.02-.003-.04-.01-.06-.008-.005.02-.006.025-.006.031l-.002.089-.002.067-.002.024c0 .023.051.015.056.015-.003-.021-.002-.011-.003-.037l-.005-.108c-.011-.013-.016-.037-.033-.039-.033-.004-.031.027-.031.043l.001.021.001.053.002.047c.135.038.063.032.062.01l-.004-.133c-.018.002-.036.006-.055.005l.01.076.014.106c.006.043.067.035.061-.009z" clip-path="url(#V)"/><path d="M.184 129.24c.002-.039.001-.078 0-.117l-.003-.084-.002-.035c-.022-.005-.043-.009-.063-.002l-.001.041v.102.116c.019.01.04.01.058.003l-.013-.059-.011-.058-.014-.075c-.005-.019-.004-.028-.009-.028-.02.001-.039.01-.059.015l-.002.023v.055.085.022c0 .019-.002.026-.001.024.065-.022.061.014.06-.025l-.002-.181-.001-.038c-.021-.007-.043-.007-.062.001v.046l.002.177c.008.046.019.037.065.009l.006-.071.01-.128.002-.055v-.035c-.001-.014.001-.022-.004-.022-.063-.001-.058-.004-.062.028l-.008.155c-.001.047-.002.005.02-.001.013-.003.025.016.038.014l-.008-.043-.013-.068-.006-.038c-.02.003-.042.002-.061.008l.012.065c.008.043.069.032.061-.011L.104 129c-.022-.004-.042 0-.062.002l.006.037.013.07.005.023c.005.024.004.049.045.053.023.002.022-.026.022-.039l.008-.168c.003-.031.003 0-.057-.009l-.002.03-.002.053-.014.179c.017.019.036.013.055.012l.001-.175v-.027c-.02-.025-.041-.022-.062-.022l.001.043.002.182c.001.034-.004.034.059.04.005-.018.005-.021.005-.025l.001-.038v-.056-.059-.023c-.018-.01-.037-.008-.055-.009l.005.028.01.054.017.086.005.022c.024.022.045.016.066.016l.001-.022v-.116-.124c-.019-.017-.04-.015-.061-.016l.002.037.003.084v.109c-.004.044.057.05.062.006z" clip-path="url(#U)"/><path d="M.107 129.02c0 .037-.002.024.061.012l-.003-.025-.005-.028-.013-.068-.014-.078c-.007-.034-.005-.041-.065-.002l.007.078.009.093.005.038c.012.019.019.037.032.035.034-.005.035-.032.037-.054l.002-.026.003-.064.001-.086c-.04.023.016.024-.06.003l.009.144c.002.015.003.042.03.037.017-.003.026-.023.035-.037.004-.006 0-.014 0-.021l-.003-.062-.011-.162c-.022-.004-.043-.004-.062.005l.006.108.004.122-.001.041c.005.007-.003.015-.001.022.021-.008.041-.001.06-.006l-.004-.044-.021-.143-.006-.028-.005-.02c-.014-.026-.013-.036-.065-.003-.008.005-.003.018-.004.027s-.001.019-.001.028l-.001.063v.077c.02.014.041.01.061.007l-.016-.157-.004-.033c-.023-.007-.045-.004-.063.007-.006.004 0 .014 0 .021v.027.17.029c.021.009.043.011.063.005l.002-.037v-.119-.038c.001-.044-.061-.045-.062-.001v.04.116c-.001.023-.004.028-.001.029.02.005.04.004.061.005v-.029-.171-.026c-.069-.036-.062-.031-.059-.007l.018.178.063.003v-.094l.001-.06.001-.024c-.053-.022-.052.005-.052-.015.006.022.004.014.01.042l.02.138.003.027c.07.053.064.038.066-.002l.001-.043-.004-.124-.005-.091c-.066-.033-.066-.036-.063-.014l.011.159.002.058c.012.015.02-.004.033-.003.025.003.029.043.026.02l-.009-.146c-.015-.012-.026-.034-.046-.037-.011-.002-.014.018-.018.028l-.001.096-.003.062-.002.024c.06.012-.001-.029.055.023l-.006-.042-.009-.092-.005-.058c-.021-.02-.042-.014-.062-.013l.017.09.012.066.004.026c.003.021 0 .028.003.028.068.007.061.011.062-.022 0-.044-.062-.044-.062 0z" clip-path="url(#T)"/><path d="M.167 128.82c.009-.044.009-.078.009-.111l-.002-.095c-.001-.021.001-.028-.003-.028-.021-.001-.042.005-.062.008l-.001.023-.001.067v.097c0 .046-.002.041.061.019l-.005-.066-.007-.083c-.002-.022 0-.028-.004-.028-.02-.002-.041.003-.062.004l-.002.023-.001.026-.001.03-.004.083-.002.032c.02.008.042.011.062.007v-.04l-.003-.095-.002-.025c-.02-.023-.04-.023-.058-.028l-.012.032a1.07 1.07 0 0 0-.006.059l-.006.085c.024-.015-.008.02-.001.02.021 0 .042.003.062-.004l-.007-.075-.004-.029-.007-.043c-.07-.016-.063-.018-.067.019v.095c.002.044.064.042.062-.002v-.088c-.019-.01-.038-.008-.056-.009.003.01.005.026.007.038l.004.028.006.053c.059.038.062.043.064.017l.007-.099.003-.029c.001-.008.004-.016.003-.023l-.055-.018c.003.014.003.022.004.029l.003.092v.022c.019.018.04.019.061.02l.002-.038.004-.084.002-.054c-.019-.013-.039-.016-.059-.017l.009.102.004.053c.067.031.064.033.063.007v-.115l.001-.064c-.019-.019-.039-.022-.059-.024l.004.111c0 .029 0 .058-.005.086-.014.05.045.067.058.025z" clip-path="url(#S)"/><path d="M.155 128.63a.44.44 0 0 0 .005-.055l.001-.033.002-.138c0-.018.001-.021 0-.021-.07.008-.062-.009-.061.034l.012.19c.02.05.028.046.064-.001.005-.006-.001-.015-.001-.022l-.005-.056-.012-.081c-.006-.023-.007-.033-.013-.033-.019-.003-.037.005-.056.007l-.007.029a.67.67 0 0 0-.002.065l.002.122c0 .01-.001.056.019.053.051-.007.045-.026.045-.053l-.004-.051-.003-.023c-.005-.023-.005-.032-.011-.033-.019-.003-.038.004-.056.006l-.008.025c-.003.011-.008.046-.009.055l-.01.077c-.005.041-.005.031.059.025l.005-.056.012-.106c-.017-.012-.037-.015-.056-.011l.001.099c.006.046.018.051.065.032.009-.004.005-.018.007-.028s.009-.061.01-.072l.021-.232c-.019-.003-.039-.002-.058.005l.007.081.003.034c.024.01.046.005.063-.007.006-.004 0-.014 0-.022l-.002-.029-.011-.089-.006-.037c-.004-.008-.011-.014-.017-.021-.016.01-.036.016-.049.029-.006.006-.003.017-.003.026l-.003.03-.008.091-.002.02c-.003.029-.002-.008.011-.011s.031.014.046.01c.007-.002-.002-.015-.003-.022l-.016-.115c-.003-.02-.002-.026-.005-.026-.021 0-.041.006-.062.009v.021.027l.003.097.002.025c.007.046.02.041.066.018.006-.003.001-.013.002-.02l.002-.044.001-.02c.002-.044-.06-.046-.062-.003v.02l-.002.042c.018.015.038.012.057.014l-.003-.035-.004-.136-.06-.002c.002.009.003.015.004.02l.016.114c.001.008-.002.017.003.023.014.014.03.03.05.033.014.002.015-.027.016-.036l.002-.02.01-.118c-.012-.022-.027-.013-.042-.01-.004-.006-.006-.014-.011-.018l.005.031.011.087.002.025c.02.019.04.011.059.013.002-.004-.004-.014-.001-.025l-.004-.05-.002-.023c-.001-.007.004-.019-.003-.021-.062-.023-.059-.019-.064.008l-.021.228-.005.038-.004.029c.016.017.035.017.053.021l-.002-.058v-.045c-.02-.028-.042-.026-.062-.029-.005.017-.008.042-.008.047l-.009.086-.004.046c.063.032.058.038.061.013l.011-.089.004-.028.004-.023c-.016-.01-.033-.01-.049-.014.002.008.003.015.005.029l.004.046c.001.037-.005-.01.044-.004.02.002.017.041.016.018l-.001-.04-.002-.097v-.032l.001-.024c-.018-.008-.034-.008-.05-.011.003.007.005.02.007.031l.007.055.005.054c.018.018.032 0 .048.001s.016.04.012.012l-.011-.186c-.001-.042.007-.024-.063-.032v.048.034l-.001.075-.002.055c-.013.059.046.076.058.034z" clip-path="url(#R)"/><path d="M.165 128.32l.002-.122v-.024l-.001-.033c-.068.001-.063-.013-.061.024l.008.175c.021.011.043.012.062.002l-.011-.078-.018-.095-.005-.021c-.017-.023-.032-.026-.046-.032-.007.013-.017.026-.022.04-.003.008 0 .017 0 .026l.001.031.005.138c.021.008.043.007.062 0l-.003-.036-.006-.077c-.002-.017 0-.022-.002-.022-.021.002-.041.008-.062.012v.061l.001.037c.024.01.046.014.065.005.007-.004.003-.016.004-.024l.007-.062.008-.071.006-.059c-.065 0-.058-.03-.058.013l.002.091.002.043c.022.011.043.018.063.012.007-.002.001-.015.002-.022l-.001-.026-.006-.102-.002-.031-.003-.042c-.068 0-.063-.014-.061.023l.006.143a.09.09 0 0 0 .063 0l-.008-.105-.007-.058-.003-.021c-.003-.021-.006-.047-.05-.033-.014.004-.009.027-.013.041l.009.107.002.027c.054-.072-.009-.01.058-.019l-.021-.09-.009-.035c-.022-.017-.04-.024-.056-.019-.011.003-.014.037-.016.047l-.005.067c0 .02-.002.026.001.028.016.009.034.013.051.019.005-.009.01-.017.014-.027.001-.002.009-.042.009-.043l.013-.059c-.027.014-.038.001-.051.001l.008.052.005.03c.023.013.044.013.062.007.002-.001.005-.031.006-.033l.007-.056c.002-.018.005-.021.003-.024-.021.006-.04.001-.059.004l.006.076c.005.054.067.049.063.005l-.006-.076c-.019-.025-.041-.026-.06-.031-.005.015-.008.036-.008.037l-.007.056c.017.019.036.018.054.019-.002-.008-.002-.011-.004-.024l-.006-.043c-.001-.007.001-.015-.004-.02-.012-.012-.025-.025-.042-.027s-.022.021-.026.032l-.013.06-.005.022c.02.018.036.027.052.033l.004-.077a.2.2 0 0 0-.05-.021l.009.032.011.049.006.024c.005.021.008.051.043.051.014 0 .017-.022.026-.033l-.002-.029-.009-.105c-.03.03 0 .009-.062-.006l.011.087.007.082c.064.03.064.036.062.013l-.006-.145c-.002-.036.004-.023-.063-.019l.004.047.002.031.006.1.001.023c.021.01.041.011.061.014-.001-.01-.001-.006-.002-.022l-.001-.024-.002-.091c-.001-.039.006-.036-.06-.046-.006.018-.006.023-.006.029l-.003.026-.003.032-.015.13c.016.021.036.019.055.021l-.001-.031v-.044c-.02-.016-.041-.017-.061-.018l.009.113c.021.02.043.017.063.014l-.002-.046-.004-.128c0-.007.006-.019-.001-.02s-.013.01-.02.015c-.012-.007-.024-.016-.037-.02.005.014.006.021.007.028l.018.091.008.058c.07.04.065.037.064.006l-.008-.176c-.002-.038.005-.022-.063-.022l.001.035v.024l-.002.118c-.003.044.059.048.062.004z" clip-path="url(#Q)"/><path d="M.117 128.15c-.001.011-.003.022-.006.033.008.008.019.001.031-.005.006.004.012.016.019.013l-.017-.102-.004-.021c-.019-.022-.036-.035-.052-.03s-.018.048-.018.062l-.002.063v.03.043c.062.042.051.042.063-.001l-.003-.092-.001-.027c-.02.004-.041.005-.06.012l.001.032.002.072c.004.041.013.056.053.048.012-.002.014-.02.018-.03s.012-.061.013-.068l.026-.274.002-.02c.002-.02.08-.046-.059.004l.003.072.002.088c.001.017 0 .026.004.026.021-.005.039-.017.059-.026l-.002-.023-.006-.063-.009-.082c-.018-.05-.029-.044-.068-.006-.006.006-.002.016-.002.024l-.002.03-.003.032-.005.052c.066-.012.059.029.059-.015l.002-.08.001-.044c-.021 0-.042-.006-.062-.001l-.008.119c.02.015.041.017.062.012v-.098l-.001-.026-.001-.037c-.068-.014-.063-.024-.062.012l.004.084.003.04a.14.14 0 0 0 .059.017c.022-.038-.031-.069-.053-.032l.056.011-.003-.039-.004-.082c-.001-.031.003-.018-.062-.016l.001.044.001.026v.057.023c.02.019.041.02.062.018l.006-.109c-.018-.019-.04-.018-.06-.022 0 .011 0 .002 0 .02l-.001.022-.002.082c0 .035-.006.041.055.053.007.001.006-.012.009-.018l.006-.066.003-.032.002-.029c-.014-.023-.031-.009-.047-.011-.007-.001-.012-.034-.007-.006l.009.081.006.062.002.021c.02-.001.04-.005.06-.003v-.089l-.002-.061c0-.007.005-.019-.002-.022-.051-.023-.061-.024-.064.004l-.002.021-.025.268-.006.035c-.001.008-.006.015-.005.023.024.002.037.012.051.018l-.004-.091-.001-.024c-.001-.007.005-.019-.002-.021-.02-.005-.041.003-.062.005l.001.029.003.089c.02-.028-.002-.004.062.01l.001-.081.001-.061c0-.007.006-.016.001-.021-.055.002-.062-.028-.054-.002l.014.075.004.027c.001.007 0 .015.003.021.006.012.016.023.024.034.013-.006.028-.01.04-.018l.007-.023c.003-.014.006-.029.007-.043.002-.044-.06-.047-.062-.003z" clip-path="url(#P)"/><path d="M.157 127.92c.005-.017.006-.029.006-.037l.001-.022-.001-.059-.001-.03-.002-.044c-.068-.022-.061-.025-.067.012l-.003.024-.004.051-.002.037c.02.013.041.023.061.019.007-.001.002-.014.003-.021a.99.99 0 0 0 0-.05l-.002-.055c-.001-.011 0-.022-.002-.034-.023-.006-.044-.001-.062.01l.003.041.002.022.004.034c.07.011.063.015.066-.022v-.025-.052-.043c-.021.002-.043-.001-.062.006l.004.124c.002.036-.003.05.065.022.007-.003.001-.014.001-.021l-.002-.054-.001-.027-.003-.04c-.07-.001-.063-.011-.062.028l.004.07c.069.012.065.02.061-.015l-.015-.085-.01-.046c-.023-.015-.043-.026-.06-.018-.01.004-.007.02-.009.031s-.001.017-.001.025l.002.077c.002.032.004.061.032.056.037-.007.034-.037.033-.06l-.001-.025-.003-.053-.001-.02c-.001-.019-.002-.049-.043-.039-.015.004-.014.028-.022.042v.026l.002.066.003.075c.017.021.035.035.053.031.011-.002.011-.02.014-.031s.003-.017.004-.026l.008-.07.012-.108.003-.025c-.019-.002-.036-.007-.053-.004l.009.074c.002.016.001.021.003.021.021-.001.042-.003.061-.011l-.012-.083-.009-.052c-.004-.014-.004-.024-.009-.023-.02.002-.037.013-.056.02l-.005.073c-.003.044.059.048.062.004l.005-.067c-.101.015-.038.023-.059-.003l.01.058.01.066c.066.017.067.026.062.004l-.009-.075c-.001-.007.002-.018-.004-.022-.016-.011-.037-.013-.056-.02-.003.006-.007.011-.01.018s-.006.041-.006.042l-.012.109-.007.068c-.001.007-.005.015-.003.021.026-.001.04.011.056.016l-.004-.08-.002-.064v-.024c-.039.028-.003.012-.06-.013l.005.082.001.024c.013.016.02-.004.032-.002.032.004.029.046.027.019l-.003-.089c0-.022-.003-.018-.005-.017l-.049-.012c.005.009.003.004.006.022l.005.025.014.08c.004.032-.002.022.064.011l-.003-.051-.001-.025c-.02-.024-.041-.02-.062-.021l.003.038.001.027.002.05c.108.045.061.036.06.015l-.004-.097-.001-.025c-.02-.023-.042-.02-.062-.021v.042l-.001.073c.018.016.037.011.056.012-.002-.009-.002-.01-.003-.026l-.002-.021-.002-.021c-.021-.021-.041-.013-.061-.014-.002.004.003.014 0 .025l.002.08c0 .02 0 .021.001.021.02.005.04.008.059.012 0-.014 0-.027.001-.041l.006-.07c.002-.028.004-.01-.056-.018l.003.043.001.03.001.055-.002.031c-.018.044.038.07.056.03z" clip-path="url(#O)"/><path d="M.159 127.61c.003-.026.003-.046.003-.065v-.069-.093c-.053.018-.01.03-.059.003l.007.125v.073l-.001.054c-.001.017-.003.023-.001.022.041-.034.009-.037.06-.01l-.009-.084-.012-.096-.003-.021c-.002-.01-.006-.039-.021-.036s-.033.02-.045.034c-.005.006-.001.015-.001.023v.029l-.001.033-.002.07-.004.086-.002.029c.02.011.04.016.061.014l.004-.031.006-.139.004-.069.006-.088c-.009 0-.015.011-.023.02-.013-.006-.023-.018-.038-.019l.003.041.015.167c0 .001.002.023.005.022.021-.004.039-.016.058-.025l-.013-.111-.006-.069-.005-.095v-.023c-.014-.011-.03-.004-.045.004.001.023.004.031.006.039l.015.058.013.056.006.022c.009.022.012.032.019.032.018 0 .034-.012.051-.018l.005-.024a.27.27 0 0 0 .002-.026.62.62 0 0 0-.006-.101l-.005-.031-.009-.044c-.009-.02-.011-.032-.019-.031-.054.002-.049.012-.054.045l-.001.028v.062l.002.059c.003.052.065.048.062.004l-.002-.065v-.058-.023c0-.026.003.003-.044-.003.001.019.002.027.003.035l.004.028.006.062c.001.028 0 .023-.001.048.015.007.03.005.045.004 0-.007-.002-.013-.003-.02l-.013-.057-.015-.06-.014-.048c-.004-.009-.006-.024-.016-.025-.018-.002-.034.013-.051.019-.002.02-.001.047-.001.053l.005.098.003.036.017.143.059-.007-.005-.071-.008-.095-.002-.024c-.012-.031-.027-.041-.04-.053-.008.009-.017.018-.024.028l-.001.023-.005.073-.004.07-.005.136c.018.025.039.029.059.031l.002-.034.004-.087.002-.071.001-.061c-.014-.019-.027-.002-.042-.004s-.018-.039-.014-.011l.015.116.007.063.002.02c.012.012.019.034.036.037.025.003.028-.023.028-.037l.002-.041.001-.031v-.076l-.007-.129c-.01-.013-.014-.037-.03-.04-.036-.005-.034.027-.034.044v.024.068.068l-.001.043c-.009.055.052.066.06.023z" clip-path="url(#N)"/><path d="M.189 127.32a.59.59 0 0 0 .001-.09l-.004-.062-.003-.042c-.02-.016-.041-.024-.06-.019-.005.001-.005.043-.005.047l-.001.181c.019-.003.039.004.056-.002l-.015-.071-.011-.06-.004-.024c-.007-.023-.01-.037-.018-.035-.02.005-.033.023-.05.034v.023l.001.056.002.07c.021.013.042.017.062.012v-.039c-.002-.072.001.025-.001-.05l-.001-.041c-.021-.011-.043-.013-.062-.008v.037.073.038c.021-.001.042.002.062-.004v-.04-.102l.003-.08c.001-.025 0-.021.002-.026.008-.043-.053-.054-.061-.011a.48.48 0 0 0-.003.034l-.003.082v.036.09c.02.019.041.016.061.018v-.035l-.001-.093c-.02-.015-.041-.016-.062-.015l.001.048.001.05c.001.021 0 .024.001.024.02.004.04.007.061.007l-.003-.133c-.11.01-.018.002-.059-.023l.007.037.011.061.012.058c.002.007-.001.017.005.02.047.023.059.028.064-.004l.001-.194c0-.021-.002-.018-.003-.018-.019-.003-.038-.01-.057-.013l.004.048.004.061a.53.53 0 0 1-.001.081c-.005.044.057.051.062.007z" clip-path="url(#M)"/><path d="M.175 127.17c.002-.035-.001-.07-.003-.105l-.006-.097-.001-.02c-.022-.007-.042-.001-.062.002l.007.115.002.065.001.024c.02.013.041.014.059.006l-.005-.041-.008-.099-.004-.048c-.022-.01-.044-.016-.064-.009-.007.003-.001.016-.002.023l-.001.029v.034l-.004.119c.021.012.044.01.062 0 .007-.004 0-.016-.001-.023l-.001-.029-.002-.084c-.001-.022.002-.028-.001-.029-.021-.002-.041.002-.062.003l-.002.131c-.001.033-.007.032.061.017l.006-.064a1.47 1.47 0 0 0 .004-.182l-.001-.023c-.008-.046-.021-.039-.065-.011-.006.004-.001.014-.001.02l.002.058.006.089c.003.02.003.03.007.029.021-.004.039-.017.058-.025l-.002-.022-.008-.06-.014-.082c-.008-.044-.006-.041-.064-.008l.014.069.011.061.004.025c.006.022.006.032.012.032.02 0 .038-.009.057-.013l.004-.024a1.53 1.53 0 0 0 .002-.056l.002-.086v-.02c0-.031.005-.036-.061-.006l.003.042.008.087.004.041c.02-.007.042-.009.059-.02l-.02-.1-.006-.025c-.006-.013-.009-.016-.011-.02-.03-.032-.075.011-.045.043l.018.096c.023.02.045.014.065.013l-.003-.034-.008-.086-.002-.025c-.069-.041-.064-.038-.064-.007l-.002.104c-.003.086.001-.021-.002.052.017.009.035.007.052.009-.004-.014-.002-.008-.007-.033l-.011-.061-.011-.056c-.072-.024-.068-.025-.063.001l.017.097.008.056c.021.016.04.01.06.011l-.006-.09-.002-.054c-.019-.018-.038-.01-.057-.011v.025c.002.058.001.117-.004.175l-.004.05c.063.037.059.042.06.018l.002-.146c-.021-.001-.041-.004-.062-.002l.001.028.003.112c0 .007-.006.019 0 .022.018.01.041.012.062.013l.002-.06.004-.132c-.019-.018-.04-.017-.06-.019.002.013.001.006.003.026l.002.028.009.102.003.028c.001.007-.003.018.003.02.02.007.042.004.063.002v-.048l-.002-.066-.006-.098c-.022-.017-.043-.02-.063-.018l.002.026.006.097.003.101c0 .044.062.044.062 0z" clip-path="url(#L)"/><path d="M.179 126.9c-.009-.041-.012-.082-.016-.123l-.01-.093c-.004-.023-.002-.029-.006-.03-.02-.004-.04 0-.06 0l-.003.025c-.001.011 0 .048 0 .057l.004.142c.02.007.04 0 .059-.005.002-.008 0-.014 0-.02l-.011-.086-.003-.022c-.008-.023-.017-.03-.023-.037-.015.013-.033.022-.044.038-.005.007 0 .016 0 .024l.001.029.003.06.002.023c.01.047.023.04.066.009.006-.004.001-.015.002-.022l.002-.028.002-.032.005-.057c.003-.023.007-.028.005-.027-.047.023-.018.03-.051.016l.021.147c.021.017.041.026.06.02.01-.003.005-.02.006-.03s0-.018-.001-.027l-.005-.072-.016-.203c-.015.013.005-.022-.002-.02-.021.003-.043.005-.061.016-.006.004.001.015.001.022.004.065 0-.002.004.071l.004.118v.052c.009 0 .019-.009.029-.019.009.004.018.016.027.012s-.002-.014-.003-.022l-.014-.113-.012-.108-.003-.021c-.023-.012-.044-.006-.064-.003l-.001.025v.072.084.036.03.023c.067.018.061.033.062-.004l.009-.172.003-.032.01-.066c-.025.003-.035 0-.045-.003.024.037.076.002.052-.034l-.035-.017c-.008.006-.017.011-.024.019s-.007.022-.008.025a.75.75 0 0 0-.011.072l-.003.033-.009.174c-.001.037-.007.023.061.027l.001-.043v-.03-.037-.169l-.059-.005.004.025.012.109.01.082.005.034c.003.021.006.058.037.061.015.002.022-.019.033-.029l.001-.067-.004-.12-.004-.072c0-.007.006-.019-.001-.022-.019-.007-.041-.002-.062-.003l.018.217.005.069c0 .008-.001.015.001.023.023 0 .041.008.059.01l-.01-.077-.009-.062-.006-.027c-.009-.011-.012-.031-.026-.033-.035-.006-.042.016-.046.036l-.003.021-.006.058-.005.06c.017.023.036.014.055.016 0-.01 0-.018-.001-.025l-.005-.086c-.015-.021-.029-.009-.043-.004-.006-.007-.009-.016-.017-.021l.006.032.011.083c0 .001.003.04.005.04.02.002.041-.006.06-.013l-.002-.052-.003-.099v-.03-.022c-.02-.007-.039-.011-.058-.012a.18.18 0 0 1 .004.021l.01.091.017.132c.01.043.07.029.06-.014z" clip-path="url(#K)"/><path d="M.185 126.58v-.024l-.009-.166-.003-.057c-.068-.015-.063-.022-.061.012l.006.152.001.067c.02-.009-.01.032 0 .032.021.001.041-.002.061-.007l-.004-.07-.006-.114-.003-.047c-.023-.005-.046-.007-.064.004-.007.004-.001.016-.002.025l-.004.069-.006.073-.003.03-.002.023c.019.007.04.015.059.008.007-.002 0-.014 0-.021v-.137-.032c-.021.003-.043-.001-.062.008l-.005.144-.001.021c-.002.028-.004.03.061.02l.006-.079.011-.286.002-.058c-.02-.008-.041-.007-.06.001l.003.051.002.044.002.095v.101.03c-.001.044.061.045.062.001v-.03-.103l-.002-.097-.002-.045-.002-.035c-.001-.008.006-.022-.002-.025-.019-.008-.042-.005-.062-.001l-.003.069-.011.284-.002.034-.002.025c.019.014.04.019.06.019.011 0-.02-.044.002-.032l.005-.128c0-.007.006-.019 0-.022-.019-.009-.042-.004-.062-.007v.033.137c0 .04-.007.032.06.043.004-.016.007-.042.007-.047l.003-.03.006-.074.002-.037.002-.031c0-.007.008-.018.001-.021-.018-.008-.04-.004-.059-.006l.003.044.006.115.004.061c.067.031.063.03.063.001v-.021l-.001-.068-.006-.153c-.002-.035.005-.031-.063-.018l.003.069.002.038.007.126v.022c0 .044.062.044.062 0z" clip-path="url(#J)"/><path d="M1.088 126.51v-.132c0-.046-.002-.029.002-.052l.03-.211a1.81 1.81 0 0 0 .017-.248l.001-.244.003-.814-.005-.525-.037-.543c-.043-.473-.045-.512-1.078-.43-.108.009-.109.323-.113.44l.001 1.887-.002.583.007.47.006.123c.101.514.13.308 1.141.154.023-.003.044-.223.047-.254l.035-.817.007-.833-.021-.781-.025-.786-.025-.55c-.229-.61-.048-.423-1.171.029-.033.013-.004.072-.005.108l-.006.426-.006 1.111-.012.862-.001.688.02.332c.001.018-.012.047.005.053l1.056.283.116-.346c.009-.034.004-.071.006-.106l.007-.12.037-.537.033-1.347-.027-1.022-.041-.761-.017-.536c-.03-.53-.017-.276-1.177-.137-.004 0-.005.195-.005.196l-.024.915-.013 1.023.011.507.003.092.009.094c.15.51.046.398 1.134.169.068-.014.038-.133.052-.201.009-.043.011-.087.016-.13l.023-.318.033-1.064-.032-.925-.031-.723-.019-.309-.009-.079c-.01-.049.013-.138-.036-.146-.357-.061-.723-.031-1.085-.047l-.061.243c-.005.027-.014.226-.015.242l-.021.5-.023 1.084-.003.711a.59.59 0 0 0 1.169-.019l.003-.679.022-1.05.021-.49.005-.106c.001-.022.015-.083.004-.064-.025.041-.033.091-.049.137l-1.071-.075c-.036-.006-.014-.071-.022-.106-.002-.009.003.017.004.026l.016.264.032.749.03.846-.031 1.004-.018.262c-.002.023-.03.075-.007.069s.004-.074.031-.075c1.094-.069.97-.321 1.1.178-.008-.041-.003-.013-.006-.097l-.01-.488.012-.97.024-.936.001-.083-1.16-.014c-.008 0-.002-.034-.002-.025l.006.111.016.519.041.76.026.98-.031 1.271-.037.536-.008.129c-.001.025-.016.095-.004.074.046-.079.072-.168.108-.252 1.127.315 1.07.651 1.043.222l-.014-.231.001-.636.012-.875.006-1.104.003-.294.002-.1c0-.015.015-.047.001-.044-1.168.228-.927.601-1.157-.032.007.055.006.113.009.168l.013.319.025.784.02.749-.006.8-.029.722c-.006.09-.001-.029.019-.03.362-.019.729-.047 1.088.006.053.008.022.106.034.158.004.019-.018-.13-.003-.057l-.006-.445.002-.586-.002-1.857c.004-.198.003.206-.103.207-1.096.004-1.084-.63-1.04-.149l.033.478.004.486-.004 1.043c-.001.034 0 .068-.005.102l-.039.3-.005.256a.59.59 0 0 0 1.169.005z" clip-path="url(#I)"/><path d="M1.291 121.41c-.063-.253-.092-.514-.121-.773l-.143-1.535c-.003-.024.014-.065-.009-.071-.356-.095-.719-.265-1.084-.219-.124.016-.055.244-.083.366l.022 1.183.018 1.31.011.45.008.175c.015.074.038.146.057.218.371-.061.753-.078 1.114-.183.047-.014.01-.097.014-.146l.013-.341.008-.445.003-1.519-.016-.826-.016-.337-.046-.612c-.387-.001-.777-.047-1.161-.003-.046.005-.007.093-.009.139l-.003.277-.002.418v1.699l.008 1.242.002.362a.59.59 0 0 0 1.169-.002l-.002-.37-.008-1.235v-1.691l.002-.414.001-.15.001-.102-1.16-.032.013.162.026.368.015.312.015.809-.003 1.485-.013.596-.005.119c0 .012-.012.036 0 .035l1.101-.105.047.196c.004.013-.002-.027-.003-.04l-.003-.095-.007-.269-.003-.161-.019-1.325-.022-1.157c-.028.079.001.237-.083.238-.367.003-.717-.162-1.078-.23-.009-.002.003.018.004.028l.009.097.027.289.109 1.175.15.928a.59.59 0 0 0 1.133-.289z" clip-path="url(#H)"/><path d="M1.146 118.94c-.04-.189-.062-.381-.081-.572l-.057-1.065-.039-.969-.017-.284c-.003-.025.015-.073-.01-.073-1.201-.025-1.147-.33-1.164.179l.024 1.241.033 1.757.005 1.114c-.001.491.04.261 1.166.176.046-.004.01-.092.014-.138l.016-.326.036-1.632.006-1.502-.028-1.041-.045-.651c-.108-.472-.017-.253-1.16-.048-.045.008-.011.091-.015.136l-.003.098-.002.277.017 1.348.033 1.613.057 1.288.039.662a.59.59 0 0 0 1.168-.056l-.04-.676-.055-1.246-.033-1.607-.017-1.327.001-.246c0-.021.009-.042.001-.062-.005-.013.005.04-.009.041-1.148.077-1.054.401-1.144-.052.026.186.023.376.038.563l.027.991-.006 1.482-.035 1.596-.007.167-.007.117c1.191.136 1.155.453 1.155.056l-.005-1.131-.033-1.766-.024-1.206c-.307-.239.041.031-1.158.003-.011 0-.003-.043-.003-.032l.016.259.039.959.062 1.132.104.712a.59.59 0 0 0 1.14-.258z" clip-path="url(#G)"/><path d="M1.341 116l-.059-.59-.049-1.428-.001-1.054c0-.007.008-.021.001-.021l-1.164.056c-.017.002 0 .034 0 .05l.004.598-.038 1.936-.01.293-.026.61-.006.082 1.16-.006c.014-.001 0-.029 0-.043v-.116l.006-.555.029-1.68-.015-1.564-.01-1.243c-.017-.582-.008-.453-1.166-.321-.021.002-.033.321-.034.339l-.038 1.752-.026 2.07-.06 1.115c-.098.354.072-.269 1.036-.268.128 0 .116.439.119.213l.001-.136.002-.188-.009-1.818-.073-1.778-.068-1.129-.019-.691a.59.59 0 0 0-1.169.018l.019.717.069 1.153.072 1.733.008 1.781-.002.19c-.001.129-.025.634.122.648.358.034.703-.156 1.046-.265.023-.007.007-.048.01-.072l.065-1.198.027-2.075.037-1.714c.002-.037.008-.075.005-.112-.001-.008-.003.023-.011.022l-1.136-.096c-.007-.001-.001-.028-.001-.021l.006.157.01 1.223.015 1.556-.028 1.659-.006.582.001.13c.001.04-.036.113.003.118.385.057.777.037 1.165.055l.021-.33.03-.758.038-1.979-.004-.626c-.001-.043.038-.125-.005-.13-.387-.041-.779-.011-1.169.007-.015.001-.001.031-.002.046l.001 1.098.052 1.498.073.703A.59.59 0 0 0 1.341 116z" clip-path="url(#F)"/><path d="M1.272 112.03l-.004-.068a.59.59 0 0 0-1.168.058l.007.111a.59.59 0 0 0 1.165-.101z" clip-path="url(#E)"/><path d="M.127 109.9c0-.01-.002-.019-.003-.028l-.003-.029c-.022-.015-.02-.017-.023-.006s-.004.029-.005.044l-.001.033c0 .009-.001.007.021.002v-.061-.043c-.016-.012-.019-.005-.021-.001l-.001.023a.6.6 0 0 0 .001.056c.023.016.022.021.022.01l-.001-.054c-.001-.019-.002-.039-.005-.058l-.006-.037-.002-.023c-.001-.011 0-.014-.021-.003l.005.1.002.066c.007.006.014.006.021.004v-.031l-.008-.106-.008-.073-.002-.045c-.013.02.003.002-.019.006l.006.039.006.091c.001.022 0 .043-.002.065-.001.009-.002.007.02.002v-.044l-.006-.154c-.021-.001-.019.001-.019.002l.003.023.008.101.001.027c.024.003.021.005.022-.009.002-.033.001-.066 0-.099l-.006-.076-.002-.043c.001-.007.002-.01-.02.003l.002.054.004.117v.058c.007.002.015.003.021 0l.002-.036.003-.109v-.074-.046c0-.008.001-.009-.021 0v.048l.001.107v.02c.024.011.022.002.023-.008.003-.035.003-.07.003-.106l-.001-.076-.003-.036c-.001-.009 0-.019-.015-.018-.011.034-.011.052-.012.071l-.001.04.002.04.007.062c.005.026.025.022.022.008l-.009-.071-.002-.038v-.026l.005-.07c-.021.002-.019-.009-.018.002l.003.04.001.075-.003.103c.016.007.016.012.018.014l-.001-.025-.001-.107v-.042c-.021-.016-.021-.015-.021-.007v.046.074l-.003.108-.001.028c.005.012.013.011.02.012l-.001-.062-.004-.117-.002-.047c-.022-.02-.021-.018-.022-.01l.002.044.006.075v.096c.005.01.013.008.019.009l-.001-.027-.008-.103-.003-.024c-.008-.009-.015-.007-.022-.005l.002.062.004.099v.04c.021.014.02.013.021.004a.53.53 0 0 0 .002-.067l-.006-.093-.003-.025c-.003-.017-.004-.026-.018-.026-.007.026-.006.041-.005.057l.008.073.008.105.001.024c.006.009.014.008.021.008l-.002-.073-.005-.084c-.023-.022-.021-.02-.02-.01l.002.024.006.037c.003.019.004.037.005.056l.001.052c0 .009-.001.002.02.003l-.002-.068c.001-.018.003-.021.001-.021-.02.004-.02-.01-.02-.001v.042.047c.022.02.021.023.021.013v-.032l.004-.04c-.017.014-.016.024-.015.034l.003.026c0 .015.021.015.021 0z" clip-path="url(#D)"/><path d="M.118 109.59c-.002-.018-.005-.035-.009-.052l-.006-.038-.002-.049c-.007-.015-.014-.016-.021-.015l.001.047.003.078.001.044c0 .012-.002.01.021.006l-.001-.048-.005-.062-.008-.05-.005-.028c-.009-.005-.015-.007-.02-.004-.008.023-.01.033-.011.043l-.004.051c.001.021.002.034.005.046.002.007.005.013.01.019.025.009.028-.012.014-.014-.006-.02-.007-.031-.008-.042 0-.024.001-.04.003-.056l.005-.026c-.007.033-.004.05-.002.066l.005.061.001.041c.023.01.021.012.021 0l-.001-.044-.003-.078-.001-.041c-.007-.007-.014-.006-.021-.007l.001.051.008.056.008.052c.002.014.023.011.02-.003z" clip-path="url(#C)"/><path d="M.105 109.46l.005-.036.001-.021c0-.009.001-.005-.021-.002l-.001.051c0 .012-.002.007.02.002l-.003-.037c-.007-.016-.014-.016-.021-.016v.031c.022.019.021.024.021.014v-.027c-.007-.015-.014-.016-.021-.014v.03.022c.004.011.008.013.012.016.01-.017.01-.019.01-.021l.001-.02v-.028c-.021-.005-.021-.012-.021-.003v.023l.001.026c.006.024.003.023.021.012v-.053c0-.01.001-.008-.021-.006l-.001.054a.51.51 0 0 0 .004.048l.003.029.001.03.002.031.003.028c.002.014.022.012.021-.002l-.003-.027-.002-.029-.001-.031-.003-.031-.004-.046v-.042c-.022-.01-.02-.015-.02-.005v.034c.02.012.014.005.02.017l-.002-.036v-.022c-.007-.003-.014-.002-.021-.003v.033l-.001.024c.012 0 .016.003.02.006l-.001-.026v-.026c-.007-.006-.014-.005-.021-.006v.043c0 .01-.001.005.021.005v-.048c0-.008.001-.002-.021-.003l.003.047c.024.015.022.016.022.005l.001-.042c-.021-.01-.02-.014-.02-.006-.001.025-.002.03-.003.035-.004.034.017.036.019.021z" clip-path="url(#B)"/><path d="M.088 109.39l.001.026c0 .011-.002.008.021.005-.001-.025-.022-.023-.021-.009.023.011.021.016.021.004v-.027c-.001-.015-.022-.013-.021.002z" clip-path="url(#A)"/><path d="M.138 130.706c-.021-.014-.026-2.029-.026-10.406l.013-10.402c.007-.007.068-.011.137-.01.231.004.457.169.522.38a2.23 2.23 0 0 1 .035.355l.011.277h.1c.148 0 .187.041.21.22a3.22 3.22 0 0 1 .02.327c.001.141.011.203.047.283.068.149.068.497 0 .644-.038.082-.047.139-.047.29 0 .161.005.189.037.197s.036.05.03.558c-.009.694.029 1.844.074 2.26.06.558.046.672-.111.86-.027.033-.049.073-.049.089s-.014.03-.031.03c-.027 0-.032.085-.037.623-.01 1.136-.007 1.227.047 1.551.049.295.049.303.013.442-.031.12-.034.199-.023.526.017.51.082 1.16.148 1.484.076.369.05.539-.106.695l-.056.056.025 1.106c.028 1.228.018 3.435-.015 3.457-.011.008-.02.082-.02.165s-.009.161-.021.173-.059.028-.104.035a.48.48 0 0 0-.155.061c-.095.062-.259.098-.373.081a.67.67 0 0 0-.174.001l-.083.014.014.184c.009.109.006.188-.005.196s-.017.31-.014.762l.001 2.103c-.002.157.002.282.01.277s.013.01.011.033c-.003.046-.012.05-.052.025z"/></g></svg>