<?xml version="1.0" encoding="UTF-8"?>
<svg width="105pt" height="205pt" version="1.0" viewBox="0 0 105 205" xmlns="http://www.w3.org/2000/svg" xmlns:cc="http://creativecommons.org/ns#" xmlns:dc="http://purl.org/dc/elements/1.1/" xmlns:rdf="http://www.w3.org/1999/02/22-rdf-syntax-ns#">
 <metadata>
  <rdf:RDF>
   <cc:Work rdf:about="">
    <dc:format>image/svg+xml</dc:format>
    <dc:type rdf:resource="http://purl.org/dc/dcmitype/StillImage"/>
    <dc:title/>
   </cc:Work>
  </rdf:RDF>
 </metadata>
 <g transform="matrix(.1 0 0 -.1 0 205)">
  <path fill="#ADA480" d="m490 2043c-36-13-40-24-20-50 24-30 20-38-19-46-36-7-94-57-111-94-6-16-35-46-63-68-27-22-64-57-81-78-28-36-31-45-31-113v-75l-52-39c-64-49-93-106-93-183 0-31 7-74 16-96 15-38 15-41-7-70-27-37-37-126-20-188 12-44 59-93 90-93 48 0 67-39 177-376 59-181 117-350 130-376 56-111 156-128 237-39 26 29 55 99 151 371 137 387 147 408 186 421 35 13 60 61 67 134 8 74-3 120-38 160-25 28-28 38-20 54 18 33 12 76-14 115-25 36-25 39-10 83 20 60 6 115-43 166-33 34-37 43-37 95 0 84-31 126-134 186-73 42-84 52-111 105-43 86-91 116-150 94zm157-220c21-17 54-38 73-48 64-32 90-64 90-112v-43h-63c-77 0-160 21-244 61-66 31-103 73-103 115 0 33 37 72 80 85 22 7 49 23 62 36l22 24 23-44c12-25 39-58 60-74zm-192-200c86-46 195-73 294-73 81 0 84-1 117-34 35-35 43-70 24-106-9-17-12-17-57-3-36 12-105 17-267 20-236 4-269 10-301 59-23 35-35 110-24 150 6 19 27 48 50 68l41 35 32-42c19-25 56-55 91-74zm-224-204c63-59 82-63 344-69 238-5 240-5 285-32 56-32 77-66 61-97-12-21-15-21-391-21-208 0-386-3-394-6-12-4-20 4-31 30-32 76-11 153 54 201 19 14 36 25 37 25s17-14 35-31zm721-316c14-13 18-31 18-89 0-46-5-77-13-84-6-5-25-20-40-31-31-24-63-83-97-181-13-38-27-68-32-68-11 0-10 18 2 25 15 10 12 45-5 45-7 0-18-8-24-17-9-16-14-14-50 22-23 21-41 44-41 49 0 6 21 32 47 58 37 38 45 50 35 60s-23 1-65-39l-52-52-52 50c-50 47-73 55-73 24 0-7 22-33 49-58l50-44-60-59-59-58-48 47c-43 42-82 61-82 39 0-4 23-30 50-57 28-27 50-54 50-60-1-5-20-30-44-54l-43-44-25 19c-18 14-35 50-63 134-20 63-48 134-61 157-24 41-77 83-107 83-25 0-37 33-37 101 0 106-32 99 443 99 368 0 412-2 429-17zm-267-403 39-40-54-57c-30-32-56-60-58-62-1-3-23 15-47 39l-45 44 57 58c32 32 60 58 63 58s24-18 45-40zm84-84c9-10 5-31-17-90-15-43-31-78-33-79-3-1-22 13-43 31l-37 33 51 59c29 33 55 60 60 60 4 0 13-6 19-14zm-229-153c-24-26-47-49-50-51-3-1-26 18-50 43l-44 45 98 100 45-44 45-45zm119-27 43-44-22-66c-12-36-25-66-28-66-4 1-36 27-71 60l-64 58 43 51c24 28 46 51 49 51 4 0 26-20 50-44zm-239-11 44-45-31-31-30-31-22 63c-35 104-28 112 39 44zm148-143 73-67-17-47c-16-48-63-98-91-98s-68 56-91 129c-25 77-26 75 22 129 11 12 22 22 25 22 3-1 39-31 79-68z"/>
 </g>
</svg>
