<?xml version="1.0" encoding="UTF-8"?>
<svg width="512pt" height="512pt" version="1.0" viewBox="0 0 512 512" xmlns="http://www.w3.org/2000/svg" xmlns:cc="http://creativecommons.org/ns#" xmlns:dc="http://purl.org/dc/elements/1.1/" xmlns:rdf="http://www.w3.org/1999/02/22-rdf-syntax-ns#">
 <metadata>
  <rdf:RDF>
   <cc:Work rdf:about="">
    <dc:format>image/svg+xml</dc:format>
    <dc:type rdf:resource="http://purl.org/dc/dcmitype/StillImage"/>
    <dc:title/>
   </cc:Work>
  </rdf:RDF>
 </metadata>
 <g transform="matrix(.1 0 0 -.1 0 512)" fill="#ada480">
  <path d="m1315 3994c-134-33-239-102-500-328-214-186-283-227-390-234-65-4-74-2-101 21l-29 26 31 11c39 14 68 61 59 99-15 71-107 102-187 62-57-28-81-63-86-128-14-172 158-304 355-273 147 24 235 75 450 262 276 240 367 298 474 306 71 5 98-10 158-85 50-64 73-77 118-68 42 8 76 56 69 98-13 65-122 183-201 217-62 27-148 32-220 14z"/>
  <path d="m2400 4003c-44-8-183-79-255-130-38-28-146-117-240-199-196-171-235-197-328-225-73-23-121-20-163 8-31 20-30 28 6 43 37 15 50 37 50 85 0 123-214 120-262-5-15-41-11-115 9-162 61-136 223-196 400-148 115 31 204 88 378 240 83 73 185 159 229 191 192 145 315 165 392 63 58-76 81-94 117-94 74 0 110 69 74 141-34 69-123 153-190 177-56 21-148 27-217 15z"/>
  <path d="m4600 3996c-141-32-246-100-524-344-78-67-157-134-178-148-95-66-223-92-288-59-36 19-38 32-6 45 51 19 73 92 41 137-35 50-141 54-201 8-116-88-58-290 103-361 74-33 135-38 223-20 142 30 210 73 455 286 238 208 336 270 438 277 76 5 110-13 163-87 40-56 60-70 99-70 37 0 85 50 85 88 0 35-63 136-111 176-80 68-196 96-299 72z"/>
  <path d="m3510 3990c-63-13-212-90-290-149-36-27-130-106-210-176-174-153-209-179-280-213-72-33-186-38-219-8-25 23-27 36-6 36 31 0 65 47 65 89 0 57-42 91-114 91-96 0-161-68-160-166 3-144 133-254 303-254 148 0 271 61 471 236 292 254 415 334 519 337 59 2 86-15 146-90 61-78 108-90 163-40 32 30 29 82-8 139-41 62-112 126-168 150-52 24-146 31-212 18z"/>
  <path d="m2404 2936c-136-34-259-115-504-331-167-147-235-194-315-219-67-22-146-17-175 9-24 22-26 35-5 35 31 0 65 47 65 89 0 32-6 44-32 66-28 24-39 27-88 23-98-7-152-64-151-161 0-102 56-183 161-230 61-28 71-29 160-24 164 8 243 51 487 263 260 225 357 289 459 303 73 10 113-10 177-90 55-68 85-80 133-54 45 24 60 74 37 123-27 57-119 149-179 178-64 31-155 40-230 20z"/>
  <path d="m1310 2930c-127-32-242-108-490-325-170-149-200-171-272-205-86-40-161-48-207-22-38 20-52 42-27 42 8 0 27 11 43 24 39 34 39 98 0 132-37 32-126 34-175 4-54-33-74-75-70-152 3-55 9-74 37-115 78-115 218-159 375-118 112 29 202 86 382 243 270 235 374 304 476 318 57 8 109-15 146-64 58-76 78-92 120-92 53 0 97 47 88 94-15 73-111 182-195 219-51 23-173 32-231 17z"/>
  <path d="m4589 2930c-125-32-255-118-499-330-132-115-205-171-255-196-113-56-208-56-254 0-12 14-10 16 6 16 11 0 32 11 47 25 37 34 36 87-3 126-25 25-37 29-81 29-64 0-108-20-137-63-75-112 0-279 153-337 117-44 287-11 428 83 28 19 116 91 195 161 271 237 387 311 488 311 61 0 89-18 148-93 43-54 62-65 110-64 38 1 75 42 75 84 0 65-108 190-198 231-53 23-165 32-223 17z"/>
  <path d="m3500 2923c-54-10-193-85-282-151-51-39-163-131-248-206-155-136-223-180-319-206-24-6-60-9-80-5-42 7-93 43-73 52 7 3 26 16 42 30 23 19 30 33 30 62 0 49-22 78-71 91-107 29-202-44-202-154 0-180 189-301 395-252 131 31 219 85 418 261 247 217 364 293 468 302 70 5 105-14 158-87 41-57 60-70 104-70 45 0 80 39 80 88 0 29-10 52-44 99-79 108-165 154-284 152-37-1-78-4-92-6z"/>
  <path d="m1315 1864c-73-18-178-70-260-129-33-23-141-113-240-199-213-185-283-227-390-234-61-4-74-1-97 18-33 25-36 40-9 40 11 0 31 14 46 32 75 89-61 191-172 129-54-31-76-66-81-128-14-173 159-304 358-272 144 23 234 75 447 261 276 240 367 298 474 306 71 5 98-10 158-85 50-64 73-77 118-68 42 8 76 56 69 98-13 65-122 183-201 217-62 27-148 32-220 14z"/>
  <path d="m2400 1873c-44-8-183-79-255-130-38-28-149-119-245-203-191-166-223-188-320-220-71-24-123-22-166 6-31 21-30 29 6 44 37 15 50 37 50 85 0 123-214 120-262-5-15-41-11-115 9-162 60-135 224-196 398-149 131 36 184 70 400 259 246 216 362 290 464 299 69 5 105-14 157-87 41-57 60-70 102-70 38 0 70 26 81 67 12 43-16 100-88 173-70 72-141 101-239 99-37-1-78-4-92-6z"/>
  <path d="m4597 1866c-132-30-257-112-512-335-82-72-166-143-187-157-95-66-223-92-288-59-36 19-38 32-6 45 51 19 73 92 41 137-35 50-140 55-199 9-118-89-62-290 101-362 74-33 135-38 222-20 140 29 210 72 428 262 272 236 361 293 466 301 76 5 110-13 163-87 58-80 104-92 156-40 26 27 30 36 25 69-6 44-69 136-120 175-81 62-188 85-290 62z"/>
  <path d="m3491 1855c-134-38-235-105-481-320-185-162-201-174-270-207-54-26-77-32-136-32-57-1-76 3-93 18-25 23-27 36-6 36 31 0 65 47 65 89 0 57-42 91-114 91-96 0-161-68-160-166 3-143 134-254 303-254 148 0 271 61 471 236 292 254 415 334 519 337 59 2 86-15 146-90 61-78 108-90 163-40 32 30 29 82-8 139-42 63-112 126-168 150-60 27-161 32-231 13z"/>
 </g>
</svg>
